<svg width="192" height="192" viewBox="0 0 192 192" fill="none" xmlns="http://www.w3.org/2000/svg">
  <!-- LenkCare Homes Android Chrome Icon - 192x192 -->
  <defs>
    <linearGradient id="goldGrad192" x1="0%" y1="0%" x2="100%" y2="100%">
      <stop offset="0%" style="stop-color:#D4AF37"/>
      <stop offset="50%" style="stop-color:#C9A227"/>
      <stop offset="100%" style="stop-color:#B8860B"/>
    </linearGradient>
  </defs>
  
  <!-- Background -->
  <rect width="192" height="192" fill="#FFFFFF"/>
  
  <!-- Caring hand curve (foundation) -->
  <path d="M 26 144 Q 96 176 166 144" 
        stroke="url(#goldGrad192)" 
        stroke-width="14" 
        stroke-linecap="round"
        fill="none"/>
  
  <!-- House roofline (shelter) -->
  <path d="M 38 102 L 96 44 L 154 102" 
        stroke="url(#goldGrad192)" 
        stroke-width="14" 
        stroke-linecap="round" 
        stroke-linejoin="round"
        fill="none"/>
  
  <!-- House body -->
  <path d="M 54 96 L 54 134 L 138 134 L 138 96" 
        stroke="url(#goldGrad192)" 
        stroke-width="12" 
        stroke-linecap="round" 
        stroke-linejoin="round"
        fill="none"/>
  
  <!-- Heart (love/care) - bold and centered -->
  <path d="M 96 124 
           C 96 124 72 102 72 85 
           C 72 74 80 66 90 66 
           C 94 66 96 70 96 70 
           C 96 70 98 66 102 66 
           C 112 66 120 74 120 85 
           C 120 102 96 124 96 124 Z" 
        fill="#E85A4F"/>
</svg>
