<svg width="32" height="32" viewBox="0 0 32 32" fill="none" xmlns="http://www.w3.org/2000/svg">
  <defs>
    <!-- Golden gradient inspired by original LenkCare logo -->
    <linearGradient id="goldGradient" x1="0%" y1="0%" x2="100%" y2="100%">
      <stop offset="0%" style="stop-color:#D4AF37"/>
      <stop offset="50%" style="stop-color:#C9A227"/>
      <stop offset="100%" style="stop-color:#B8860B"/>
    </linearGradient>
    
    <!-- Background for dark mode -->
    <style>
      @media (prefers-color-scheme: dark) {
        .bg-adaptive { fill: #2D3732; }
      }
      @media (prefers-color-scheme: light) {
        .bg-adaptive { fill: #FFFFFF; }
      }
    </style>
  </defs>
  
  <!-- Background with rounded corners -->
  <rect class="bg-adaptive" width="32" height="32" rx="6" fill="#FFFFFF"/>
  
  <!-- Caring hand curve (foundation) - simplified arc -->
  <path d="M 4 24 Q 16 30 28 24" 
        stroke="url(#goldGradient)" 
        stroke-width="3" 
        stroke-linecap="round"
        fill="none"/>
  
  <!-- House roofline (shelter) -->
  <path d="M 6 17 L 16 7 L 26 17" 
        stroke="url(#goldGradient)" 
        stroke-width="3" 
        stroke-linecap="round" 
        stroke-linejoin="round"
        fill="none"/>
  
  <!-- House body -->
  <path d="M 9 16 L 9 22 L 23 22 L 23 16" 
        stroke="url(#goldGradient)" 
        stroke-width="2.5" 
        stroke-linecap="round" 
        stroke-linejoin="round"
        fill="none"/>
  
  <!-- Heart (love/care) - bold and centered -->
  <path d="M 16 20 
           C 16 20 12.5 17.5 12.5 15 
           C 12.5 13.5 13.5 12.5 14.75 12.5 
           C 15.5 12.5 16 13 16 13 
           C 16 13 16.5 12.5 17.25 12.5 
           C 18.5 12.5 19.5 13.5 19.5 15 
           C 19.5 17.5 16 20 16 20 Z" 
        fill="#E85A4F"/>
</svg>
